<svg width="62" height="62" viewBox="0 0 62 62" fill="none" xmlns="http://www.w3.org/2000/svg">
<path fill-rule="evenodd" clip-rule="evenodd" d="M47.4077 5.33148C48.4156 5.70978 49.0833 6.6735 49.0833 7.75008V15.8282C50.8555 16.2858 52.4904 17.2103 53.8067 18.5266C55.7446 20.4645 56.8333 23.0928 56.8333 25.8334C56.8333 28.574 55.7446 31.2023 53.8067 33.1402C52.4904 34.4565 50.8555 35.381 49.0833 35.8387V43.9167C49.0833 44.9933 48.4156 45.957 47.4077 46.3353C46.3998 46.7136 45.2629 46.4272 44.5546 45.6165C42.9712 43.8043 40.167 42.0654 36.3185 40.7815C34.6879 40.2375 32.9037 39.7869 31 39.4495V49.7034C30.9988 51.3825 30.405 53.0091 29.3234 54.2933C28.2417 55.5776 26.7415 56.4389 25.0871 56.7255C23.4327 57.0121 21.7302 56.7057 20.2795 55.8602C18.8289 55.0147 17.7232 53.6843 17.1572 52.1035L17.1503 52.0842L11.9571 37.2083C9.70274 35.9931 7.85171 34.1301 6.65173 31.8473C5.26598 29.2112 4.83356 26.1772 5.42763 23.2589C6.0217 20.3406 7.60578 17.7172 9.9118 15.8325C12.2178 13.9479 15.1041 12.9179 18.0823 12.9167H22.816C24.6272 12.9167 26.3866 12.8188 28.0742 12.6344C28.1111 12.6295 28.1482 12.6254 28.1855 12.6221C31.1583 12.2901 33.9058 11.6898 36.3176 10.8853C40.1666 9.60139 42.9713 7.86244 44.5546 6.05034C45.2629 5.23962 46.3998 4.95318 47.4077 5.33148ZM25.8333 18.0004C24.841 18.0553 23.8342 18.0834 22.816 18.0834H18.0843C18.084 18.0834 18.0846 18.0834 18.0843 18.0834C16.2975 18.0843 14.5649 18.7024 13.1813 19.8331C11.7975 20.964 10.847 22.5383 10.4905 24.2895C10.134 26.0408 10.3935 27.8614 11.225 29.4433C12.0414 30.9963 13.36 32.2256 14.9641 32.9317C15.0237 32.9544 15.0824 32.9794 15.1401 33.0065C16.0726 33.3888 17.0712 33.5849 18.0795 33.5834L18.0833 33.5834L22.816 33.5834C23.8342 33.5834 24.841 33.6115 25.8333 33.6664V18.0004ZM31 34.2111V17.4555C33.4747 17.0651 35.8106 16.501 37.9525 15.7865C40.1219 15.0628 42.1402 14.1686 43.9166 13.1126V38.554C42.1406 37.4982 40.1227 36.604 37.9535 35.8804C35.8114 35.1658 33.4752 34.6015 31 34.2111ZM49.0833 30.3079C49.471 30.084 49.8313 29.8089 50.1533 29.4868C51.1223 28.5179 51.6666 27.2037 51.6666 25.8334C51.6666 24.4631 51.1223 23.149 50.1533 22.18C49.8313 21.8579 49.471 21.5828 49.0833 21.3589V30.3079ZM25.8333 38.8418C24.8465 38.7814 23.8395 38.7501 22.816 38.7501L18.0871 38.7501C18.0865 38.7501 18.0877 38.7501 18.0871 38.7501M25.8333 38.8418L25.8333 49.7016C25.8333 49.7012 25.8333 49.702 25.8333 49.7016C25.8327 50.1635 25.6692 50.6116 25.3716 50.965C25.0738 51.3186 24.6607 51.5558 24.2051 51.6347C23.7496 51.7136 23.2807 51.6292 22.8813 51.3964C22.4842 51.1649 22.1809 50.8015 22.0243 50.3696L17.9677 38.7497" fill="#402FFF"/>
</svg>
