<svg width="42" height="42" viewBox="0 0 42 42" fill="none" xmlns="http://www.w3.org/2000/svg">
<path d="M20.9824 3.5C11.3224 3.5 3.48242 11.34 3.48242 21C3.48242 30.66 11.3224 38.5 20.9824 38.5C30.6424 38.5 38.4824 30.66 38.4824 21C38.4824 11.34 30.6424 3.5 20.9824 3.5ZM27.2999 14.595C29.1724 14.595 30.6774 16.1 30.6774 17.9725C30.6774 19.845 29.1724 21.35 27.2999 21.35C25.4274 21.35 23.9224 19.845 23.9224 17.9725C23.9049 16.1 25.4274 14.595 27.2999 14.595ZM16.7999 11.83C19.0749 11.83 20.9299 13.685 20.9299 15.96C20.9299 18.235 19.0749 20.09 16.7999 20.09C14.5249 20.09 12.6699 18.235 12.6699 15.96C12.6699 13.6675 14.5074 11.83 16.7999 11.83ZM16.7999 27.8075V34.37C12.5999 33.0575 9.27492 29.82 7.80492 25.69C9.64242 23.73 14.2274 22.7325 16.7999 22.7325C17.7274 22.7325 18.8999 22.8725 20.1249 23.1175C17.2549 24.64 16.7999 26.6525 16.7999 27.8075ZM20.9824 35C20.5099 35 20.0549 34.9825 19.5999 34.93V27.8075C19.5999 25.3225 24.7449 24.08 27.2999 24.08C29.1724 24.08 32.4099 24.7625 34.0199 26.0925C31.9724 31.29 26.9149 35 20.9824 35Z" fill="#402FFF"/>
</svg>
