<svg width="42" height="42" viewBox="0 0 42 42" fill="none" xmlns="http://www.w3.org/2000/svg">
<path d="M19.25 21C23.1175 21 26.25 17.8675 26.25 14C26.25 10.1325 23.1175 7 19.25 7C15.3825 7 12.25 10.1325 12.25 14C12.25 17.8675 15.3825 21 19.25 21ZM19.25 10.5C21.175 10.5 22.75 12.075 22.75 14C22.75 15.925 21.175 17.5 19.25 17.5C17.325 17.5 15.75 15.925 15.75 14C15.75 12.075 17.325 10.5 19.25 10.5ZM8.75 31.5C9.1 30.3975 13.2475 28.56 17.43 28.105L21 24.605C20.419 24.5387 19.8348 24.5037 19.25 24.5C14.5775 24.5 5.25 26.845 5.25 31.5V35H21L17.5 31.5H8.75ZM36.05 21.875L27.0725 30.9225L23.45 27.2825L21 29.75L27.0725 35.875L38.5 24.3425L36.05 21.875Z" fill="#402FFF"/>
</svg>
