<svg width="62" height="62" viewBox="0 0 62 62" fill="none" xmlns="http://www.w3.org/2000/svg">
<path d="M34.4273 45.327C34.3001 45.7768 34.1674 46.2092 34.0295 46.6228C33.3784 48.5762 32.6601 49.9706 31.9879 50.8237C31.6577 51.2427 31.3891 51.4663 31.2105 51.576C31.1253 51.6283 31.0684 51.65 31.0396 51.6587C31.0136 51.6667 31.0002 51.6666 31.0002 51.6666C33.4529 51.6666 35.8605 51.2306 38.1196 50.4016L34.4273 45.327Z" fill="#402FFF"/>
<path fill-rule="evenodd" clip-rule="evenodd" d="M16.3865 16.3864C18.528 14.245 21.091 12.622 23.8805 11.5983C23.5875 12.2803 23.3173 12.9986 23.0691 13.7434C21.7562 17.6822 20.9118 22.8018 20.7124 28.4166H10.4954C11.0659 23.888 13.1248 19.6482 16.3865 16.3864ZM12.7332 12.733C17.5778 7.88834 24.1487 5.16663 31.0001 5.16663C37.8515 5.16663 44.4223 7.88834 49.267 12.733C54.1117 17.5777 56.8334 24.1485 56.8334 31C56.8334 37.8514 54.1117 44.4222 49.267 49.2669C44.4223 54.1116 37.8515 56.8333 31.0001 56.8333C24.1487 56.8333 17.5778 54.1116 12.7332 49.2669C7.88847 44.4222 5.16675 37.8514 5.16675 31C5.16675 24.1485 7.88847 17.5777 12.7332 12.733ZM45.6136 16.3864C43.4722 14.245 40.9092 12.622 38.1196 11.5983C38.4127 12.2803 38.6828 12.9986 38.9311 13.7434C40.2439 17.6822 41.0883 22.8018 41.2878 28.4166H51.5047C50.9343 23.888 48.8754 19.6482 45.6136 16.3864ZM27.9706 15.3771C26.8596 18.7105 26.08 23.2576 25.8825 28.4166H36.1176L30.9999 10.3333C30.9999 10.3333 30.9866 10.3333 30.9606 10.3412C30.9318 10.35 30.8749 10.3716 30.7897 10.4239C30.611 10.5336 30.3425 10.7572 30.0123 11.1762C29.3401 12.0293 28.6217 13.4238 27.9706 15.3771ZM34.4273 45.327C35.3251 42.1515 35.9446 38.1021 36.1176 33.5833H25.8825C26.08 38.7423 26.8596 43.2894 27.9706 46.6228C28.6217 48.5762 29.3401 49.9706 30.0123 50.8237C30.3425 51.2427 30.611 51.4663 30.7897 51.576C30.8749 51.6283 30.9318 51.65 30.9606 51.6587C30.9853 51.6663 31.0002 51.6666 31.0002 51.6666C33.4529 51.6666 35.8605 51.2306 38.1196 50.4016C40.9092 49.3779 43.4722 47.755 45.6136 45.6135C48.8754 42.3517 50.9343 38.1119 51.5047 33.5833H41.2878C41.0883 39.1981 40.2439 44.3177 38.9311 48.2565C38.6828 49.0013 38.4127 49.7196 38.1196 50.4016L34.4273 45.327ZM10.4954 33.5833H20.7124C20.9118 39.1981 21.7562 44.3177 23.0691 48.2565C23.3173 49.0013 23.5875 49.7196 23.8805 50.4016C21.091 49.3779 18.528 47.755 16.3865 45.6135C13.1248 42.3517 11.0659 38.1119 10.4954 33.5833Z" fill="#402FFF"/>
</svg>
