<svg width="140" height="43" viewBox="0 0 140 43" fill="none" xmlns="http://www.w3.org/2000/svg">
<g clip-path="url(#clip0_511_7603)">
<path d="M12.7082 35.8457C12.4171 35.634 12.1988 35.3363 12.0864 34.9923C11.9739 34.6516 11.9739 34.2811 12.0831 33.9404L12.4403 32.4652C12.5065 32.2039 12.6222 31.9624 12.7876 31.7507C12.9497 31.5391 13.1581 31.3637 13.3929 31.2381L14.5638 30.6228C15.2882 30.2491 15.8671 29.6437 16.2078 28.9028C16.5451 28.1652 16.6311 27.3317 16.4459 26.5411L16.4294 26.4651C16.2111 25.5786 15.6719 24.8046 14.9111 24.2952C14.1537 23.7825 13.2308 23.5741 12.3278 23.7064L11.0147 23.895C10.7501 23.9314 10.4788 23.9148 10.2175 23.8387C9.95953 23.766 9.72137 23.637 9.51299 23.465L8.3553 22.4826C8.06753 22.2676 7.85584 21.9666 7.74337 21.6259C7.63422 21.2852 7.63422 20.9181 7.74337 20.5774C7.98814 19.8199 7.98153 19.0029 7.72022 18.2487C7.46222 17.4946 6.96276 16.8463 6.30122 16.4031C5.63968 15.9565 4.85245 15.7382 4.0553 15.7812C3.25814 15.8242 2.49737 16.1219 1.88876 16.6346C1.27684 17.1473 0.850143 17.8452 0.671527 18.6225C0.492912 19.3965 0.572297 20.2102 0.899758 20.9379C1.22391 21.6656 1.7763 22.2676 2.47422 22.6513C3.17214 23.0383 3.97922 23.1838 4.76645 23.0714C4.89545 23.0548 5.02114 23.0251 5.14684 22.9953L5.48753 22.9291C5.77199 22.8762 6.06307 22.8828 6.34091 22.9556C6.62207 23.0284 6.88007 23.164 7.09837 23.3525L8.67284 24.7153C8.9143 24.9237 9.09953 25.1916 9.20868 25.4926C9.31784 25.7936 9.35091 26.1144 9.3046 26.432L9.26491 26.6701L9.23184 26.8818V26.8984C9.18222 27.335 9.20868 27.7782 9.31453 28.2049C9.31453 28.2314 9.31453 28.2545 9.33437 28.2777V28.3041C9.48322 28.883 9.77761 29.4155 10.1845 29.8554C10.2341 29.9084 10.2837 29.958 10.3333 30.0043L10.5053 30.1763C10.7335 30.4078 10.8989 30.689 10.9849 30.9999C11.0709 31.3108 11.0808 31.6383 11.0048 31.9525L10.5251 33.9702C10.459 34.2481 10.33 34.5094 10.1481 34.7343C9.96284 34.9559 9.7313 35.1345 9.46999 35.2536L9.1756 35.3892C9.05653 35.4355 8.93745 35.4917 8.82499 35.5513C8.28914 35.8324 7.82937 36.2459 7.4953 36.7487C6.9363 37.5458 6.7213 38.5315 6.88999 39.4874C7.06199 40.4434 7.60776 41.2934 8.40491 41.8491C9.20207 42.4048 10.1878 42.6231 11.147 42.4511C12.1062 42.2824 12.9563 41.7367 13.512 40.9395C13.8428 40.4897 14.0644 39.9704 14.1603 39.418C14.1835 39.2956 14.2 39.1699 14.2099 39.0442L14.2496 38.7234C14.2265 38.1577 14.0776 37.6054 13.8097 37.1059C13.5418 36.6064 13.168 36.1764 12.7082 35.8457Z" fill="white"/>
<path d="M40.7441 18.3144C40.549 17.7256 40.2083 17.1931 39.7518 16.7697C39.2987 16.3463 38.7397 16.0453 38.1377 15.8932C37.5323 15.7443 36.9006 15.751 36.2986 15.9097C35.6966 16.0718 35.1475 16.3827 34.6977 16.8127C34.6017 16.8987 34.5124 16.9913 34.4264 17.0873L34.2048 17.3254C34.0097 17.5371 33.7682 17.7025 33.5003 17.805C33.2323 17.9109 32.9446 17.9539 32.6568 17.9307L30.5862 17.762C30.2653 17.7356 29.9544 17.6297 29.6865 17.4511C29.4153 17.2725 29.197 17.0277 29.0481 16.74L28.939 16.525C28.9059 16.4588 28.8761 16.396 28.8397 16.3364V16.3166C28.6247 15.9329 28.3436 15.5922 28.0029 15.3077L27.95 15.2647L27.9235 15.2416C27.4604 14.8645 26.9113 14.6065 26.3259 14.4874H26.3027L26.0943 14.4543L25.8496 14.4345C25.532 14.3816 25.231 14.2493 24.9797 14.0508C24.725 13.8523 24.5265 13.591 24.4008 13.2933L23.6003 11.3881C23.4879 11.1235 23.4416 10.8357 23.4581 10.548C23.4747 10.2602 23.5573 9.97903 23.6963 9.72765L23.8583 9.45642C23.9278 9.34726 23.9907 9.2348 24.0469 9.12234C24.2917 8.61957 24.4207 8.07049 24.4207 7.51149C24.3942 6.55557 23.994 5.64926 23.3093 4.98442C22.6246 4.31626 21.705 3.9458 20.7491 3.9458C19.7932 3.9458 18.8737 4.31626 18.189 4.98442C17.5043 5.64926 17.104 6.55557 17.0776 7.51149C17.0776 8.07049 17.2066 8.61957 17.4513 9.12234C17.5109 9.2348 17.5737 9.34726 17.6399 9.45642L17.802 9.72765C17.9442 9.97903 18.0236 10.2602 18.0401 10.548C18.0567 10.8357 18.0103 11.1235 17.8979 11.3881L17.0974 13.2933C16.975 13.591 16.7766 13.849 16.5252 14.0475C16.2738 14.2493 15.9761 14.3816 15.6586 14.4345L15.4204 14.4709L15.2087 14.5073H15.1889C14.7556 14.5933 14.3421 14.7586 13.9683 14.9935L13.9154 15.0266C13.9022 15.0332 13.8923 15.0398 13.8857 15.0464C13.3796 15.3706 12.9628 15.8138 12.6717 16.3397V16.3596C12.6387 16.4191 12.6056 16.4853 12.5758 16.5481C11.0873 19.7367 14.3454 21.5063 14.7556 21.6155C15.2583 21.7676 15.7876 21.814 16.3102 21.7544C16.8328 21.6949 17.3356 21.5295 17.7887 21.2682L17.8582 21.2219C18.6355 20.7423 19.2044 19.9881 19.4525 19.1083C19.7006 18.2317 19.6113 17.2923 19.2011 16.4753L18.6057 15.278C18.4867 15.0365 18.4205 14.7719 18.4106 14.504C18.4007 14.236 18.4503 13.9681 18.5495 13.72L19.1184 12.3143C19.2342 11.9736 19.4525 11.6792 19.7436 11.4708C20.0347 11.2624 20.3853 11.15 20.7425 11.15C21.0997 11.15 21.4503 11.2624 21.7414 11.4708C22.0325 11.6792 22.2508 11.9736 22.3666 12.3143L22.9454 13.72C23.048 13.9681 23.0943 14.236 23.0877 14.504C23.0777 14.7719 23.0116 15.0365 22.8925 15.278L22.307 16.4654C21.9432 17.1964 21.8307 18.0266 21.9961 18.8271C22.1582 19.6276 22.5849 20.3486 23.2067 20.8779L23.263 20.9308C23.7393 21.331 24.3115 21.6023 24.9234 21.7213C25.5353 21.8404 26.1671 21.804 26.7592 21.6089C27.3017 21.4369 27.7945 21.1359 28.2013 20.7356L29.1507 19.8128C29.3425 19.6243 29.574 19.4754 29.8254 19.3828C30.0801 19.2869 30.3513 19.2505 30.6226 19.2703L32.1375 19.3828C32.4947 19.3894 32.842 19.5052 33.1331 19.7136C33.4242 19.9253 33.6392 20.223 33.7517 20.5603C33.9865 21.2748 34.572 22.6442 36.7153 23.0543C37.3339 23.1436 37.9623 23.0709 38.5445 22.8493C39.1233 22.6276 39.6393 22.2605 40.0396 21.7842C40.4431 21.3079 40.7143 20.739 40.8334 20.127C40.9525 19.5151 40.9161 18.8866 40.7243 18.2946L40.7441 18.3144Z" fill="#EC1D35"/>
<path d="M27.4935 23.8484C26.9974 24.0204 26.5409 24.2917 26.1539 24.6456C25.7669 25.0028 25.456 25.4328 25.2443 25.9124C25.2443 25.9389 25.2211 25.9621 25.2145 25.9885C24.8738 26.832 24.8606 27.7747 25.1748 28.6314C25.4924 29.4881 26.1175 30.1926 26.9279 30.616L28.1021 31.2312C28.3403 31.3569 28.5487 31.5322 28.7141 31.7439C28.8794 31.9556 28.9952 32.2004 29.0614 32.4617L29.4219 33.9369C29.5311 34.2776 29.5278 34.6481 29.4186 34.9888C29.3061 35.3294 29.0878 35.6271 28.7968 35.8388C28.5057 36.0505 28.1551 36.163 27.7945 36.163C27.434 36.1663 27.0834 36.0505 26.7923 35.8421L25.499 35.045C25.2674 34.9061 25.0723 34.7208 24.9168 34.4992C24.768 34.2776 24.6621 34.0262 24.6158 33.7616L24.3909 32.4584C24.2586 31.6546 23.8617 30.917 23.2597 30.3613C22.6577 29.8089 21.8903 29.4748 21.0766 29.4054H20.9972C20.0843 29.3392 19.1813 29.6171 18.4635 30.1827C17.7458 30.7483 17.2628 31.5587 17.114 32.4617C16.5947 35.5643 19.3897 36.5731 20.4713 36.7121H20.5738C21.1692 36.7451 21.7679 36.6327 22.3104 36.3846H22.3302L22.5221 36.2887L22.7371 36.1795C23.0248 36.034 23.3457 35.9645 23.6698 35.9777C23.9907 35.9877 24.3049 36.0836 24.5828 36.249L26.3557 37.3372C26.6038 37.4894 26.8121 37.6911 26.9676 37.9359C27.1231 38.1774 27.2223 38.4519 27.2521 38.7364L27.2918 39.0605C27.3017 39.1862 27.3149 39.3152 27.3381 39.4442C27.4439 40.0561 27.7052 40.6317 28.0955 41.1179C28.4891 41.6008 28.9952 41.9812 29.5741 42.2128C30.1529 42.4476 30.7814 42.5303 31.3999 42.4542C32.0184 42.3814 32.6072 42.1499 33.1133 41.7828C33.6161 41.4156 34.0196 40.9294 34.2842 40.3638C34.5455 39.8014 34.6613 39.1796 34.6183 38.5578C34.5753 37.9359 34.3735 37.3372 34.0328 36.8146C33.6921 36.292 33.2224 35.8653 32.6734 35.5742C32.5576 35.5147 32.4418 35.4618 32.3194 35.4154L32.0251 35.2765C31.7638 35.1574 31.5322 34.9821 31.3503 34.7605C31.1684 34.5356 31.0361 34.2743 30.9699 33.9964L30.4903 31.9754C30.4175 31.6612 30.4241 31.3338 30.5134 31.0228C30.5994 30.7152 30.7648 30.4308 30.9898 30.2025L31.1618 30.0305C31.2147 29.9809 31.2643 29.9313 31.3106 29.8784V29.8651C31.6116 29.541 31.8498 29.1672 32.0151 28.7571L32.0383 28.6975V28.6644C32.2566 28.1088 32.3327 27.5068 32.2632 26.9114V26.8915C31.777 23.3457 28.2774 23.5574 27.4935 23.8484Z" fill="#402FFF"/>
<path d="M58.2649 36.4903V33.5961H54.7223C53.9153 33.5796 53.1247 33.3513 52.4334 32.9379C51.6693 32.488 50.3165 30.9996 49.8997 30.4108C49.4896 29.7691 49.2845 29.0216 49.3109 28.2608V17.8316C49.2812 17.0609 49.4862 16.3002 49.8997 15.6519C50.3165 15.1094 51.6693 13.6077 52.4334 13.1579C53.1247 12.7444 53.9153 12.5195 54.7223 12.4996H58.2649V9.69141H62.1183V12.4963H65.5782C66.3819 12.5162 67.1692 12.7444 67.8671 13.1513C68.6312 13.6044 69.9476 15.0929 70.4008 15.6486C70.8142 16.2969 71.0193 17.0576 70.9896 17.825V28.2575C71.016 29.0149 70.8109 29.7658 70.4008 30.4042C69.9476 30.9963 68.6312 32.4847 67.8671 32.9313C67.1725 33.3414 66.3819 33.5696 65.5782 33.5928H62.1183V36.4837L58.2649 36.4903ZM54.805 29.5442H58.2649V16.5483H54.8414C54.3552 16.9253 53.9219 17.3686 53.558 17.8647V28.2608C53.9119 28.747 54.332 29.177 54.805 29.5442ZM66.7557 17.8383C66.4249 17.3388 66.0016 16.9022 65.5087 16.5549H62.1183V29.5508H65.4723C65.9453 29.1704 66.3753 28.7404 66.7557 28.2707V17.8383Z" fill="white"/>
<path d="M89.3374 18.7316C88.9571 17.8385 88.3154 17.0777 87.4984 16.5551H81.3328C80.8102 16.9454 80.3504 17.4118 79.9701 17.941V28.2677C80.3174 28.7936 80.7837 29.2335 81.3328 29.5477H87.5645C88.3121 29.0053 88.9207 28.2941 89.3374 27.4705L93.2934 28.443C93.0057 29.2302 92.6088 29.9777 92.1126 30.6558C91.2791 31.8367 89.6583 33.603 87.5348 33.603H81.1575C80.3504 33.5798 79.5632 33.3549 78.8686 32.9447C78.1409 32.4949 76.8211 31.109 76.3349 30.4507C75.9446 29.8024 75.7395 29.0582 75.7428 28.304V17.7955C75.7131 17.0347 75.9181 16.2839 76.3349 15.6488C76.7484 15.103 78.1045 13.6377 78.9017 13.1515C79.5897 12.7546 80.3637 12.5297 81.1575 12.4966H87.5348C89.6517 12.4966 91.2493 14.2629 92.0795 15.404C92.5724 16.0821 92.9693 16.8264 93.2604 17.6136L89.3374 18.7316Z" fill="white"/>
<path d="M110.494 33.4244V16.6875H101.725V33.4244H97.491V13.8032C97.491 13.4956 97.6134 13.2012 97.8317 12.9862C98.05 12.7679 98.341 12.6455 98.6487 12.6455H113.57C113.874 12.6455 114.168 12.7679 114.387 12.9862C114.602 13.2012 114.724 13.4956 114.727 13.8032V33.441L110.494 33.4244Z" fill="white"/>
<rect width="26.8805" height="15.2154" transform="translate(112.461)" fill="#402FFF"/>
<path d="M116.291 12.1079V3.67336H119.099C119.661 3.67336 120.15 3.7812 120.566 3.99687C120.99 4.21255 121.317 4.51681 121.548 4.90965C121.78 5.29479 121.895 5.74926 121.895 6.27305C121.895 6.78913 121.776 7.2436 121.537 7.63644C121.306 8.02928 120.982 8.33354 120.566 8.54922C120.15 8.7649 119.661 8.87274 119.099 8.87274H117.736V12.1079H116.291ZM117.736 7.56712H119.099C119.499 7.56712 119.819 7.45157 120.058 7.22049C120.304 6.9817 120.428 6.66589 120.428 6.27305C120.428 5.8725 120.304 5.55669 120.058 5.32561C119.819 5.09452 119.499 4.97898 119.099 4.97898H117.736V7.56712ZM123.208 12.1079V3.67336H125.877C126.439 3.67336 126.924 3.77734 127.333 3.98532C127.749 4.19329 128.072 4.486 128.303 4.86344C128.534 5.23317 128.65 5.67223 128.65 6.18061C128.65 6.73522 128.507 7.22434 128.222 7.648C127.945 8.07165 127.568 8.37206 127.09 8.54922L128.765 12.1079H127.148L125.68 8.7572H124.652V12.1079H123.208ZM124.652 7.48624H125.877C126.285 7.48624 126.605 7.37455 126.836 7.15117C127.067 6.92778 127.182 6.61967 127.182 6.22683C127.182 5.82629 127.067 5.51432 126.836 5.29094C126.605 5.05986 126.285 4.94432 125.877 4.94432H124.652V7.48624ZM132.724 12.2235C132.185 12.2235 131.715 12.1233 131.314 11.923C130.921 11.7151 130.617 11.4262 130.401 11.0565C130.193 10.679 130.09 10.2361 130.09 9.72775V6.05352C130.09 5.54513 130.193 5.10608 130.401 4.73634C130.617 4.35891 130.921 4.07005 131.314 3.86978C131.715 3.6618 132.185 3.55782 132.724 3.55782C133.271 3.55782 133.741 3.6618 134.133 3.86978C134.526 4.07005 134.827 4.35891 135.035 4.73634C135.25 5.10608 135.358 5.54128 135.358 6.04196V9.72775C135.358 10.2361 135.25 10.679 135.035 11.0565C134.827 11.4262 134.526 11.7151 134.133 11.923C133.741 12.1233 133.271 12.2235 132.724 12.2235ZM132.724 10.9525C133.117 10.9525 133.413 10.8485 133.614 10.6405C133.814 10.4249 133.914 10.1206 133.914 9.72775V6.05352C133.914 5.65297 133.814 5.34871 133.614 5.14074C133.413 4.93276 133.117 4.82877 132.724 4.82877C132.331 4.82877 132.034 4.93276 131.834 5.14074C131.634 5.34871 131.534 5.65297 131.534 6.05352V9.72775C131.534 10.1206 131.634 10.4249 131.834 10.6405C132.042 10.8485 132.339 10.9525 132.724 10.9525Z" fill="white"/>
</g>
<defs>
<clipPath id="clip0_511_7603">
<rect width="139.585" height="43" fill="white"/>
</clipPath>
</defs>
</svg>
