<svg width="1026" height="940" viewBox="0 0 1026 940" fill="none" xmlns="http://www.w3.org/2000/svg">
<g opacity="0.1" clip-path="url(#clip0_520_299)">
<path d="M594.773 672.148C586.48 671.002 578.767 667.268 572.743 661.514C566.701 655.726 562.637 648.21 561.143 639.989L552.333 605.898C550.777 599.898 550.552 593.633 551.583 587.545C552.63 581.404 554.972 575.597 558.371 570.43L575.642 545.03C586.365 529.428 591.541 510.719 590.443 491.883C589.291 473.03 581.929 455.088 569.473 440.897L568.327 439.59C554.206 423.789 534.663 413.879 513.553 411.728C492.409 409.595 471.271 415.407 454.178 428.031L429.399 446.238C424.356 449.917 418.596 452.506 412.485 453.854C406.391 455.149 400.067 455.181 393.954 453.852L359.487 446.43C351.28 445.193 343.637 441.422 337.648 435.65C331.658 429.878 327.629 422.343 326.084 414.194C322.872 395.997 313.783 379.335 300.245 366.795C286.688 354.219 269.387 346.414 250.981 344.559C232.574 342.704 214.033 346.859 198.213 356.435C182.358 366.031 170.054 380.514 163.178 397.631C156.286 414.802 155.168 433.751 160.008 451.569C164.832 469.44 175.358 485.199 189.972 496.495C204.604 507.825 222.497 514.063 241.017 514.295C259.503 514.545 277.611 508.746 292.513 497.786C294.947 495.992 297.22 494.063 299.473 492.098L305.728 487.012C310.879 482.784 316.979 479.745 323.49 478.228C329.983 476.675 336.763 476.578 343.303 478.036L390.433 488.598C397.666 490.267 404.349 493.748 409.893 498.687C415.436 503.626 419.624 509.87 422.106 516.848L423.96 522.152L425.568 526.829L425.772 527.211C429.503 536.692 434.905 545.457 441.771 553.037C442.031 553.523 442.31 554.044 442.933 554.291L443.212 554.812C452.652 565.034 464.455 572.743 477.597 577.28C479.161 577.783 480.707 578.251 482.322 578.683L487.704 580.314C494.829 582.532 501.332 586.511 506.501 591.918C511.67 597.325 515.374 603.917 517.316 611.139L529.568 657.678C531.277 664.132 531.498 670.89 530.18 677.444C528.863 683.998 526.091 690.169 522.027 695.512L517.506 701.502C515.542 703.758 513.74 706.151 512.029 708.629C504.158 720.295 499.311 733.692 497.916 747.7C495.236 770.075 501.58 792.625 515.541 810.298C529.52 828.006 549.969 839.441 572.36 842.068C594.77 844.729 617.336 838.332 635.097 824.369C652.805 810.389 664.293 789.957 666.955 767.547C668.77 754.744 667.618 741.652 663.546 729.362C662.712 726.549 661.685 723.794 660.484 721.131L657.774 714.142C651.139 702.821 642.03 693.136 631.138 685.877C620.193 678.603 607.769 673.906 594.773 672.148Z" fill="#EDEDED"/>
<path d="M976.814 6.76858C966.428 -3.21638 953.619 -10.3868 939.655 -14.0376C925.673 -17.7232 911.032 -17.7971 897.019 -14.2769C883.024 -10.7221 870.128 -3.69194 859.566 6.19842C849.02 16.0355 841.133 28.4243 836.702 42.1805C835.686 44.9564 834.813 47.8341 834.082 50.7255L832.187 58.0352C830.515 64.5107 827.367 70.4808 823.032 75.5673C818.697 80.6539 813.277 84.7133 807.168 87.4L762.881 106.618C756.005 109.626 748.498 110.783 741.027 110.089C733.573 109.343 726.42 106.738 720.226 102.504L715.665 99.3175C714.246 98.3347 712.969 97.3657 711.59 96.5404L711.385 96.1584C702.761 90.6348 693.23 86.7566 683.219 84.6532L681.625 84.3446L680.863 84.1717C667.262 81.5326 653.171 82.2364 639.876 86.2653L639.425 86.5067L634.729 88.08L629.56 90.3533C622.456 92.7678 614.881 93.3808 607.516 92.0504C600.136 90.7732 593.214 87.5985 587.395 82.8962L550.172 52.7026C545 48.4583 540.836 43.0941 538.046 37.0404C535.255 30.9867 533.892 24.3478 534.026 17.6678L534.335 10.3135C534.536 7.34859 534.595 4.36992 534.531 1.41223C534.088 -11.5231 530.676 -24.1656 524.567 -35.5891C513.576 -54.8057 495.483 -69.0183 474.176 -75.1276C452.87 -81.2369 430 -78.8302 410.417 -68.3576C390.834 -57.885 376.134 -40.2007 369.386 -19.0881C362.602 2.04305 364.411 24.9642 374.291 44.775C380.4 56.1985 389.021 66.0557 399.568 73.5877C401.992 75.2827 404.502 76.8873 407.045 78.3853L413.333 82.2115C418.963 85.8092 423.728 90.6285 427.214 96.3108C430.699 101.993 432.849 108.434 433.507 115.093L437.952 162.815C438.613 170.23 437.427 177.697 434.479 184.542C431.478 191.371 426.85 197.329 420.951 201.912L416.517 205.311L412.548 208.326L412.166 208.53C404.224 215.055 397.535 222.919 392.477 231.83L391.756 233.153C391.55 233.353 391.416 233.603 391.335 233.869C384.535 246.035 380.839 259.665 380.658 273.604L380.863 273.986C380.853 275.554 380.917 277.261 380.961 278.845C385.418 360.407 471.432 360.935 481.023 358.664C493.007 356.274 504.325 351.472 514.351 344.503C524.361 337.587 532.854 328.669 539.334 318.327L540.259 316.716C550.888 298.351 554.276 276.714 549.727 256.017C545.196 235.355 533.069 217.103 515.788 204.912L490.491 186.916C485.424 183.285 481.192 178.627 478.066 173.199C474.924 167.825 472.962 161.819 472.316 155.601L468.557 120.684C467.204 112.477 468.453 104.04 472.106 96.5939C475.794 89.1293 481.756 82.994 489.083 79.0761C496.409 75.1581 504.822 73.6061 513.078 74.6831C521.299 75.7787 529.009 79.425 535.084 85.1067L562.245 107.508C567.093 111.48 570.999 116.446 573.759 122.025C576.485 127.622 578.062 133.745 578.268 139.975L579.234 170.67C579.772 189.627 586.595 207.813 598.674 222.385C610.753 236.956 627.413 247.068 645.949 251.087L647.652 251.516C661.809 254.527 676.481 253.825 690.3 249.606C704.134 245.333 716.624 237.627 726.625 227.188C735.842 217.705 742.712 206.172 746.575 193.523L755.972 164.253C757.816 158.266 760.922 152.719 765.075 148.043C769.243 143.313 774.355 139.597 780.08 137.027L812.366 122.753C819.748 118.939 828.147 117.528 836.387 118.659C844.627 119.789 852.286 123.507 858.326 129.207C870.882 141.247 897.845 162.861 946.262 147.775C959.848 142.787 971.915 134.458 981.392 123.541C990.869 112.623 997.414 99.4783 1000.41 85.374C1003.39 71.235 1002.74 56.579 998.501 42.8141C994.282 28.9959 986.594 16.5411 976.191 6.52146L976.814 6.76858Z" fill="#F7F7F7"/>
<path d="M766.166 264.892C757.868 273.839 751.499 284.39 747.481 295.915C743.411 307.424 741.827 319.657 742.741 331.805C743.001 332.291 742.81 333.018 742.915 333.632C745.183 354.656 755.21 374.075 771.027 388.121C786.879 402.148 807.399 409.794 828.566 409.548L859.35 409.249C865.604 409.254 871.769 410.512 877.493 413.032C883.182 415.571 888.286 419.272 892.465 423.913L915.962 450.15C921.97 455.957 925.964 463.51 927.405 471.715C928.846 479.919 927.669 488.407 924 495.906C920.383 503.422 914.44 509.592 907.079 513.528C899.718 517.465 891.305 519.017 883.03 517.905L847.813 515.841C841.584 515.466 835.514 513.801 829.975 510.958C824.418 508.081 819.551 504.075 815.701 499.213L796.857 474.997C785.329 459.953 769.111 449.247 750.766 444.501C732.44 439.79 713.016 441.291 695.625 448.85L694.028 449.704C674.623 458.34 659.143 473.896 650.639 493.313C642.1 512.749 641.115 534.619 647.919 554.69C671.272 623.825 739.507 613.903 763.182 604.903L765.231 603.808C777.824 597.966 788.837 589.085 797.219 578.039L797.601 577.835L800.484 573.792L803.706 569.212C808.011 563.069 813.812 558.136 820.54 554.851C827.285 551.601 834.765 550.057 842.209 550.451L890.484 553.302C897.153 553.665 903.652 555.547 909.502 558.804C915.316 562.08 920.338 566.628 924.118 572.108L928.426 578.244C930.01 580.79 931.734 583.261 933.56 585.589C942.469 596.989 954.111 605.9 967.442 611.541C980.72 617.166 995.277 619.339 1009.68 617.798C1024.05 616.277 1037.84 611.089 1049.68 602.749C1061.5 594.463 1071.04 583.244 1077.36 570.264C1083.69 557.231 1086.59 542.865 1085.83 528.406C1085.05 514 1080.59 499.994 1072.89 487.769C1065.19 475.544 1054.51 465.496 1041.83 458.569C1029.15 451.642 1014.92 447.998 1000.46 448.095C997.431 448.108 994.478 448.348 991.509 448.641L983.982 449.094C977.301 449.541 970.629 448.421 964.446 445.878C958.264 443.334 952.784 439.433 948.366 434.428L916.444 398.364C911.515 392.739 908.071 385.963 906.443 378.662C904.851 371.343 905.118 363.743 907.229 356.586L908.861 351.204C909.399 349.621 909.867 348.076 910.317 346.496L910.131 346.148C912.768 336.299 913.525 326.026 912.418 315.857L912.252 314.294L911.936 313.704C910.272 299.903 905.261 286.776 897.338 275.385L897.097 274.934C848.377 207.71 779.032 250.376 766.166 264.892Z" fill="#EDEDED"/>
</g>
<defs>
<clipPath id="clip0_520_299">
<rect width="933.188" height="893.813" fill="white" transform="translate(0.915771 151.571) rotate(-28.1368)"/>
</clipPath>
</defs>
</svg>
