<svg width="73" height="81" viewBox="0 0 73 81" fill="none" xmlns="http://www.w3.org/2000/svg">
<path d="M64.0658 19.0658L67.1317 16L61 9.86833L57.9342 12.9342L64.0658 19.0658ZM57.9342 12.9342L9.8509 61.0174L15.9826 67.1491L64.0658 19.0658L57.9342 12.9342Z" fill="#402FFF"/>
<path d="M47 21.3357L51.3357 21.3357L51.3357 12.6643L47 12.6643L47 21.3357ZM47 12.6643L12 12.6643L12 21.3357L47 21.3357L47 12.6643Z" fill="#402FFF"/>
<path d="M55.6642 65L55.6642 69.3357L64.3357 69.3357L64.3357 65L55.6642 65ZM55.6643 29L55.6642 65L64.3357 65L64.3357 29L55.6643 29Z" fill="#402FFF"/>
</svg>
