<svg width="62" height="62" viewBox="0 0 62 62" fill="none" xmlns="http://www.w3.org/2000/svg">
<path fill-rule="evenodd" clip-rule="evenodd" d="M23.2501 10.3334C22.5649 10.3334 21.9079 10.6056 21.4234 11.0901C20.9389 11.5745 20.6667 12.2316 20.6667 12.9167V15.5001H41.3334V12.9167C41.3334 12.2316 41.0612 11.5745 40.5768 11.0901C40.0923 10.6056 39.4352 10.3334 38.7501 10.3334H23.2501ZM15.5001 15.9433V12.9167C15.5001 10.8613 16.3166 8.89008 17.77 7.43667C19.2234 5.98326 21.1947 5.16675 23.2501 5.16675H38.7501C40.8055 5.16675 42.7768 5.98326 44.2302 7.43667C45.6836 8.89008 46.5001 10.8613 46.5001 12.9167V15.9433C47.5797 16.325 48.5717 16.9449 49.3968 17.77C50.8502 19.2234 51.6668 21.1947 51.6668 23.2501V26.2766C52.7463 26.6584 53.7384 27.2782 54.5635 28.1033C56.0169 29.5567 56.8334 31.528 56.8334 33.5834V49.0834C56.8334 51.1388 56.0169 53.1101 54.5635 54.5635C53.1101 56.0169 51.1388 56.8334 49.0834 56.8334H12.9167C10.8613 56.8334 8.89008 56.0169 7.43667 54.5635C5.98326 53.1101 5.16675 51.1388 5.16675 49.0834V33.5834C5.16675 31.528 5.98326 29.5567 7.43667 28.1033C8.2618 27.2782 9.25383 26.6584 10.3334 26.2766V23.2501C10.3334 21.1947 11.1499 19.2234 12.6033 17.77C13.4285 16.9449 14.4205 16.325 15.5001 15.9433ZM46.5001 25.8334V23.2501C46.5001 22.5649 46.2279 21.9079 45.7434 21.4234C45.259 20.9389 44.6019 20.6667 43.9168 20.6667H18.0834C17.3983 20.6667 16.7412 20.9389 16.2567 21.4234C15.7723 21.9079 15.5001 22.5649 15.5001 23.2501V25.8334H46.5001ZM49.0834 31.0001C49.7686 31.0001 50.4256 31.2723 50.9101 31.7567C51.3946 32.2412 51.6668 32.8983 51.6668 33.5834V49.0834C51.6668 49.7686 51.3946 50.4256 50.9101 50.9101C50.4256 51.3946 49.7686 51.6668 49.0834 51.6668H12.9167C12.2316 51.6668 11.5745 51.3946 11.0901 50.9101C10.6056 50.4256 10.3334 49.7686 10.3334 49.0834V33.5834C10.3334 32.8983 10.6056 32.2412 11.0901 31.7567C11.5745 31.2723 12.2316 31.0001 12.9167 31.0001H49.0834Z" fill="#402FFF"/>
</svg>
