<svg width="49" height="49" viewBox="0 0 49 49" fill="none" xmlns="http://www.w3.org/2000/svg">
<path d="M39.937 26.3414L41.864 26.3414L41.864 22.4874L39.937 22.4874L39.937 26.3414ZM39.937 22.4874L9.7084 22.4874L9.70839 26.3414L39.937 26.3414L39.937 22.4874Z" fill="white"/>
<path d="M34.2526 21.7383L35.6152 23.1009L38.3404 20.3757L36.9778 19.0131L34.2526 21.7383ZM36.9778 19.0131L26.0441 8.07938L23.3189 10.8046L34.2526 21.7383L36.9778 19.0131Z" fill="white"/>
<path d="M23.1661 38.2137L21.8035 39.5763L24.5286 42.3015L25.8912 40.9389L23.1661 38.2137ZM34.5578 26.822L23.1661 38.2137L25.8912 40.9389L37.283 29.5472L34.5578 26.822Z" fill="white"/>
</svg>
