<svg width="30" height="30" viewBox="0 0 30 30" fill="none" xmlns="http://www.w3.org/2000/svg">
<path d="M5 16.25C6.375 16.25 7.5 15.125 7.5 13.75C7.5 12.375 6.375 11.25 5 11.25C3.625 11.25 2.5 12.375 2.5 13.75C2.5 15.125 3.625 16.25 5 16.25ZM6.4125 17.625C5.95 17.55 5.4875 17.5 5 17.5C3.7625 17.5 2.5875 17.7625 1.525 18.225C1.07214 18.4186 0.686155 18.741 0.415023 19.1521C0.143891 19.5632 -0.000429608 20.045 9.60617e-07 20.5375V22.5H5.625V20.4875C5.625 19.45 5.9125 18.475 6.4125 17.625ZM25 16.25C26.375 16.25 27.5 15.125 27.5 13.75C27.5 12.375 26.375 11.25 25 11.25C23.625 11.25 22.5 12.375 22.5 13.75C22.5 15.125 23.625 16.25 25 16.25ZM30 20.5375C30 19.525 29.4 18.625 28.475 18.225C27.3789 17.7467 26.1959 17.4999 25 17.5C24.5125 17.5 24.05 17.55 23.5875 17.625C24.0875 18.475 24.375 19.45 24.375 20.4875V22.5H30V20.5375ZM20.3 17.0625C18.8375 16.4125 17.0375 15.9375 15 15.9375C12.9625 15.9375 11.1625 16.425 9.7 17.0625C9.04131 17.3594 8.48289 17.841 8.0924 18.4489C7.70192 19.0569 7.49614 19.765 7.5 20.4875V22.5H22.5V20.4875C22.5 19.0125 21.65 17.6625 20.3 17.0625ZM10.0875 20C10.2 19.7125 10.25 19.5125 11.225 19.1375C12.4375 18.6625 13.7125 18.4375 15 18.4375C16.2875 18.4375 17.5625 18.6625 18.775 19.1375C19.7375 19.5125 19.7875 19.7125 19.9125 20H10.0875ZM15 10C15.6875 10 16.25 10.5625 16.25 11.25C16.25 11.9375 15.6875 12.5 15 12.5C14.3125 12.5 13.75 11.9375 13.75 11.25C13.75 10.5625 14.3125 10 15 10ZM15 7.5C12.925 7.5 11.25 9.175 11.25 11.25C11.25 13.325 12.925 15 15 15C17.075 15 18.75 13.325 18.75 11.25C18.75 9.175 17.075 7.5 15 7.5Z" fill="#402FFF"/>
</svg>
