<svg width="42" height="42" viewBox="0 0 42 42" fill="none" xmlns="http://www.w3.org/2000/svg">
<path d="M21 3.5C11.34 3.5 3.5 11.34 3.5 21C3.5 30.66 11.34 38.5 21 38.5C30.66 38.5 38.5 30.66 38.5 21C38.5 11.34 30.66 3.5 21 3.5ZM19.25 34.8775C12.3375 34.02 7 28.14 7 21C7 19.915 7.14 18.8825 7.3675 17.8675L15.75 26.25V28C15.75 29.925 17.325 31.5 19.25 31.5V34.8775ZM31.325 30.4325C30.87 29.015 29.575 28 28 28H26.25V22.75C26.25 21.7875 25.4625 21 24.5 21H14V17.5H17.5C18.4625 17.5 19.25 16.7125 19.25 15.75V12.25H22.75C24.675 12.25 26.25 10.675 26.25 8.75V8.0325C31.3775 10.115 35 15.1375 35 21C35 24.64 33.6 27.9475 31.325 30.4325Z" fill="#402FFF"/>
</svg>
